<svg version="1.1" xmlns="http://www.w3.org/2000/svg" xmlns:xlink="http://www.w3.org/1999/xlink">

    <symbol id="logo" viewBox="0 0 138 45" fill="none" xmlns="http://www.w3.org/2000/svg">
        <g clip-path="url(#clip0_55_125)">
            <path d="M18.0173 31.5726L26.4743 23.5887V18.1452L20.5912 12.3387V0L35.6668 14.5161V27.2177L18.0173 45L0 26.129V15.2419L10.6633 4.71774L16.5465 10.5242V21.4113L11.7664 16.3306L8.82478 19.2339V22.8629L18.0173 31.5726Z"
                  fill="#F28153"/>
            <path d="M92.219 37.379C92.219 37.5968 92.219 37.7419 92.1455 37.8871C92.0719 38.0323 91.9984 38.1774 91.8513 38.3226C91.7042 38.4677 91.6307 38.5403 91.4101 38.6129C91.263 38.6855 91.1159 38.6855 90.8953 38.6855C90.7482 38.6855 90.5276 38.6855 90.3805 38.6129C90.2334 38.5403 90.0863 38.4677 89.9393 38.3226C89.7922 38.1774 89.7186 38.0323 89.6451 37.8871C89.5716 37.7419 89.5716 37.5242 89.5716 37.379C89.5716 37.1613 89.5716 37.0161 89.6451 36.871C89.7186 36.7258 89.7922 36.5806 89.9393 36.4355C90.0863 36.2903 90.1599 36.2177 90.3805 36.1452C90.5276 36.0726 90.6747 36.0726 90.8953 36.0726C91.0424 36.0726 91.263 36.0726 91.4101 36.1452C91.5571 36.2177 91.7042 36.2903 91.8513 36.4355C91.9984 36.5806 92.0719 36.7258 92.1455 36.871C92.1455 37.0887 92.219 37.2339 92.219 37.379ZM91.6307 37.379C91.6307 37.3065 91.6307 37.1613 91.5571 37.0887C91.5571 37.0161 91.4836 36.9436 91.4101 36.871C91.3365 36.7984 91.263 36.7258 91.1894 36.7258C91.1159 36.6532 91.0424 36.6532 90.8953 36.6532C90.8217 36.6532 90.7482 36.6532 90.6011 36.7258C90.5276 36.7984 90.454 36.7984 90.3805 36.871C90.307 36.9436 90.2334 37.0161 90.2334 37.0887C90.2334 37.1613 90.1599 37.3065 90.1599 37.379C90.1599 37.4516 90.1599 37.5968 90.2334 37.6694C90.2334 37.7419 90.307 37.8145 90.3805 37.8871C90.454 37.9597 90.5276 38.0323 90.6011 38.0323C90.6747 38.1048 90.7482 38.1048 90.8953 38.1048C90.9688 38.1048 91.0424 38.1048 91.1894 38.0323C91.3365 37.9597 91.3365 37.9597 91.4101 37.8871C91.4836 37.8145 91.5571 37.7419 91.5571 37.6694C91.5571 37.5968 91.6307 37.5242 91.6307 37.379Z"
                  fill="white"/>
            <path d="M94.7929 36.1452V38.7581H94.2046V36.7258H93.175V38.7581H92.5867V36.1452H94.7929Z" fill="white"/>
            <path d="M97.808 37.379C97.808 37.5968 97.808 37.7419 97.7345 37.8871C97.6609 38.0322 97.5874 38.1774 97.4403 38.3226C97.2932 38.4677 97.2197 38.5403 96.9991 38.6129C96.852 38.6855 96.7049 38.6855 96.4843 38.6855C96.3372 38.6855 96.1166 38.6855 95.9695 38.6129C95.8224 38.5403 95.6754 38.4677 95.5283 38.3226C95.3812 38.1774 95.3077 38.0322 95.2341 37.8871C95.1606 37.7419 95.1606 37.5242 95.1606 37.379C95.1606 37.1613 95.1606 37.0161 95.2341 36.871C95.3077 36.7258 95.3812 36.5806 95.5283 36.4355C95.6754 36.2903 95.7489 36.2177 95.9695 36.1452C96.1166 36.0726 96.2637 36.0726 96.4843 36.0726C96.6314 36.0726 96.852 36.0726 96.9991 36.1452C97.1462 36.2177 97.2932 36.2903 97.4403 36.4355C97.5874 36.5806 97.6609 36.7258 97.7345 36.871C97.7345 37.0887 97.808 37.2339 97.808 37.379ZM97.1462 37.379C97.1462 37.3064 97.1462 37.1613 97.0726 37.0887C97.0726 37.0161 96.9991 36.9435 96.9255 36.871C96.852 36.7984 96.7785 36.7258 96.7049 36.7258C96.6314 36.6532 96.5578 36.6532 96.4108 36.6532C96.3372 36.6532 96.2637 36.6532 96.1166 36.7258C96.0431 36.7984 95.9695 36.7984 95.896 36.871C95.8224 36.9435 95.7489 37.0161 95.7489 37.0887C95.7489 37.1613 95.6754 37.3064 95.6754 37.379C95.6754 37.4516 95.6754 37.5968 95.7489 37.6693C95.7489 37.7419 95.8224 37.8145 95.896 37.8871C95.9695 37.9597 96.0431 38.0323 96.1166 38.0323C96.1901 38.1048 96.2637 38.1048 96.4108 38.1048C96.4843 38.1048 96.5578 38.1048 96.7049 38.0323C96.852 37.9597 96.852 37.9597 96.9255 37.8871C96.9991 37.8145 97.0726 37.7419 97.0726 37.6693C97.1462 37.5968 97.1462 37.5242 97.1462 37.379Z"
                  fill="white"/>
            <path d="M99.2053 36.1452C99.3524 36.1452 99.4995 36.1452 99.573 36.2177C99.7201 36.2903 99.7936 36.2903 99.8672 36.4355C99.9407 36.5081 100.014 36.5806 100.088 36.7258C100.161 36.7984 100.161 36.9435 100.161 37.0887C100.161 37.2339 100.161 37.3064 100.088 37.4516C100.014 37.5242 99.9407 37.6693 99.8672 37.7419C99.7936 37.8145 99.7201 37.8871 99.573 37.9597C99.4259 38.0323 99.3524 38.0323 99.2053 38.0323H98.7641V38.8306H98.1758V36.2177H99.2053V36.1452ZM99.2053 37.3064C99.2788 37.3064 99.3524 37.3064 99.4259 37.2339C99.4995 37.1613 99.4995 37.0887 99.4995 37.0161C99.4995 36.9435 99.4995 36.871 99.4259 36.7984C99.3524 36.7258 99.2788 36.7258 99.2053 36.7258H98.7641V37.379H99.2053V37.3064Z"
                  fill="white"/>
            <path d="M100.897 38.25L100.75 38.7581H100.088L101.044 36.1452H101.706L102.662 38.7581H102L101.853 38.25H100.897ZM101.632 37.6693L101.338 36.7984L101.044 37.6693H101.632Z"
                  fill="white"/>
            <path d="M105.383 37.3064C105.456 37.3064 105.53 37.379 105.603 37.4516C105.677 37.5242 105.677 37.5968 105.75 37.6693C105.824 37.7419 105.824 37.8145 105.824 37.9597C105.824 38.0323 105.824 38.1774 105.75 38.25C105.677 38.3226 105.677 38.3952 105.603 38.4677C105.53 38.5403 105.456 38.6129 105.309 38.6129C105.236 38.6855 105.088 38.6855 104.941 38.6855H103.765V36.0726H104.868C105.015 36.0726 105.088 36.0726 105.162 36.1452C105.236 36.2177 105.383 36.2177 105.383 36.2903C105.456 36.3629 105.53 36.4355 105.53 36.5081C105.53 36.5806 105.603 36.6532 105.603 36.7984C105.603 36.871 105.603 36.9435 105.53 37.0161C105.456 37.0887 105.456 37.1613 105.456 37.1613C105.53 37.2339 105.456 37.3064 105.383 37.3064ZM104.353 37.1613H104.794C104.868 37.1613 104.941 37.1613 105.015 37.0887C105.088 37.0161 105.088 36.9435 105.088 36.871C105.088 36.7984 105.088 36.7258 105.015 36.6532C104.941 36.5806 104.868 36.5806 104.794 36.5806H104.353V37.1613ZM104.868 38.25C104.941 38.25 105.015 38.25 105.088 38.1774C105.162 38.1048 105.162 38.0323 105.162 37.9597C105.162 37.8871 105.162 37.8145 105.088 37.7419C105.015 37.6693 104.941 37.6693 104.868 37.6693H104.353V38.25H104.868Z"
                  fill="white"/>
            <path d="M106.706 38.25L106.559 38.7581H105.897L106.853 36.1452H107.515L108.471 38.7581H107.809L107.662 38.25H106.706ZM107.442 37.6693L107.148 36.7984L106.853 37.6693H107.442Z"
                  fill="white"/>
            <path d="M108.618 38.6855V36.0726H109.207V38.1048H109.869V36.0726H110.457V38.1048H111.119V36.0726H111.707V38.6855H108.618Z"
                  fill="white"/>
            <path d="M112.295 36.1452H114.207V36.7258H112.957V37.1613H114.134V37.7419H112.957V38.1048H114.281V38.6855H112.369V36.1452H112.295Z"
                  fill="white"/>
            <path d="M114.575 36.1452H116.267V36.7258H115.163V38.7581H114.575V36.1452Z" fill="white"/>
            <path d="M118.988 37.379C118.988 37.5968 118.988 37.7419 118.914 37.8871C118.84 38.0322 118.767 38.1774 118.62 38.3226C118.473 38.4677 118.399 38.5403 118.179 38.6129C117.958 38.6855 117.884 38.6855 117.664 38.6855C117.517 38.6855 117.296 38.6855 117.149 38.6129C117.002 38.5403 116.855 38.4677 116.708 38.3226C116.561 38.1774 116.487 38.0322 116.414 37.8871C116.34 37.7419 116.34 37.5242 116.34 37.379C116.34 37.1613 116.34 37.0161 116.414 36.871C116.487 36.7258 116.561 36.5806 116.708 36.4355C116.855 36.2903 116.928 36.2177 117.149 36.1452C117.37 36.0726 117.443 36.0726 117.664 36.0726C117.811 36.0726 118.032 36.0726 118.179 36.1452C118.326 36.2177 118.473 36.2903 118.62 36.4355C118.767 36.5806 118.84 36.7258 118.914 36.871C118.914 37.0887 118.988 37.2339 118.988 37.379ZM118.399 37.379C118.399 37.3064 118.399 37.1613 118.326 37.0887C118.326 37.0161 118.252 36.9435 118.179 36.871C118.105 36.7984 118.032 36.7258 117.958 36.7258C117.884 36.6532 117.811 36.6532 117.664 36.6532C117.59 36.6532 117.443 36.6532 117.37 36.7258C117.296 36.7984 117.223 36.7984 117.149 36.871C117.075 36.9435 117.002 37.0161 117.002 37.0887C117.002 37.1613 116.928 37.3064 116.928 37.379C116.928 37.4516 116.928 37.5968 117.002 37.6693C117.002 37.7419 117.075 37.8145 117.149 37.8871C117.223 37.9597 117.296 38.0323 117.37 38.0323C117.443 38.0323 117.517 38.1048 117.664 38.1048C117.737 38.1048 117.811 38.1048 117.958 38.0323C118.105 37.9597 118.105 37.9597 118.179 37.8871C118.252 37.8145 118.326 37.7419 118.326 37.6693C118.326 37.5968 118.399 37.5242 118.399 37.379Z"
                  fill="white"/>
            <path d="M121.414 37.0887C121.561 37.0887 121.708 37.0887 121.782 37.1613C121.929 37.2339 122.003 37.2339 122.076 37.3064C122.15 37.379 122.223 37.4516 122.297 37.5968C122.37 37.7419 122.37 37.8145 122.37 37.8871C122.37 37.9597 122.37 38.1048 122.297 38.1774C122.223 38.25 122.223 38.3952 122.076 38.4677C122.003 38.5403 121.929 38.6129 121.782 38.6129C121.635 38.6855 121.561 38.6855 121.414 38.6855H120.311V36.0726H122.15V36.6532H120.9V37.0161H121.414V37.0887ZM121.414 38.1774C121.488 38.1774 121.561 38.1774 121.635 38.1048C121.708 38.0323 121.708 37.9597 121.708 37.8871C121.708 37.8145 121.708 37.7419 121.635 37.6693C121.561 37.5968 121.488 37.5968 121.414 37.5968H120.9V38.1774H121.414Z"
                  fill="white"/>
            <path d="M123.326 36.1452V37.6693L124.356 36.1452H124.871V38.7581H124.282V37.2339L123.253 38.7581H122.738V36.1452H123.326Z"
                  fill="white"/>
            <path d="M125.312 36.871C125.312 36.7984 125.312 36.6532 125.385 36.5806C125.459 36.5081 125.459 36.4355 125.606 36.3629C125.68 36.2903 125.753 36.2177 125.9 36.2177C126.047 36.1452 126.121 36.1452 126.268 36.1452C126.415 36.1452 126.562 36.1452 126.636 36.2177C126.783 36.2903 126.856 36.2903 126.93 36.3629C127.003 36.4355 127.077 36.5081 127.077 36.5806C127.077 36.6532 127.15 36.7258 127.15 36.871C127.15 36.9435 127.15 37.0161 127.077 37.0887C127.003 37.1613 127.003 37.2339 126.93 37.2339C126.856 37.3064 126.856 37.3064 126.783 37.379C126.856 37.379 126.93 37.4516 127.003 37.5242C127.077 37.5968 127.077 37.6693 127.15 37.7419C127.224 37.8145 127.224 37.9597 127.224 38.0323C127.224 38.1048 127.224 38.25 127.15 38.3226C127.077 38.3952 127.077 38.4677 126.93 38.5403C126.783 38.6129 126.783 38.6855 126.636 38.6855C126.489 38.7581 126.415 38.7581 126.268 38.7581C126.121 38.7581 125.974 38.7581 125.827 38.6855C125.68 38.6129 125.606 38.6129 125.533 38.5403C125.459 38.4677 125.385 38.3952 125.312 38.25C125.238 38.1774 125.238 38.0323 125.238 37.9597L125.827 37.8871C125.827 37.9597 125.9 38.0323 125.974 38.1048C126.047 38.1774 126.121 38.1774 126.268 38.1774C126.415 38.1774 126.489 38.1774 126.562 38.1048C126.636 38.0323 126.636 37.9597 126.636 37.8871C126.636 37.8145 126.636 37.7419 126.562 37.6693C126.489 37.5968 126.415 37.5968 126.268 37.5968H125.974V37.0887H126.194C126.342 37.0887 126.415 37.0887 126.415 37.0161C126.489 36.9435 126.489 36.9435 126.489 36.871C126.489 36.7984 126.489 36.7258 126.415 36.6532C126.342 36.5806 126.268 36.5806 126.194 36.5806C126.121 36.5806 126.047 36.5806 125.974 36.6532C125.9 36.7258 125.9 36.7984 125.9 36.871H125.312Z"
                  fill="white"/>
            <path d="M129.871 36.1452V38.7581H129.283V37.7419H128.254V38.7581H127.665V36.1452H128.254V37.1613H129.283V36.1452H129.871Z"
                  fill="white"/>
            <path d="M130.313 36.1452H132.225V36.7258H130.975V37.1613H132.151V37.7419H130.975V38.1048H132.298V38.6855H130.386V36.1452H130.313Z"
                  fill="white"/>
            <path d="M133.769 38.1774C133.916 38.1774 134.063 38.1048 134.137 38.0323C134.21 37.9597 134.284 37.8871 134.357 37.7419L135.019 37.8145C135.019 37.9597 134.946 38.0323 134.872 38.1774C134.799 38.3226 134.725 38.3952 134.578 38.4677C134.504 38.5403 134.357 38.6129 134.21 38.6855C134.063 38.7581 133.916 38.7581 133.769 38.7581C133.622 38.7581 133.401 38.7581 133.254 38.6855C133.107 38.6129 132.96 38.5403 132.813 38.3952C132.666 38.25 132.592 38.1048 132.519 37.9597C132.445 37.8145 132.445 37.5968 132.445 37.4516C132.445 37.2339 132.445 37.0887 132.519 36.9435C132.592 36.7984 132.666 36.6532 132.813 36.5081C132.96 36.3629 133.034 36.2903 133.254 36.2177C133.401 36.1452 133.548 36.1452 133.769 36.1452C133.916 36.1452 134.063 36.1452 134.21 36.2177C134.357 36.2903 134.431 36.3629 134.578 36.4355C134.652 36.5081 134.799 36.6532 134.799 36.7258C134.872 36.871 134.946 36.9435 134.946 37.0887L134.284 37.1613C134.284 37.0887 134.21 37.0887 134.21 37.0161C134.21 36.9435 134.137 36.9435 134.063 36.871C133.99 36.871 133.99 36.7984 133.916 36.7984C133.843 36.7984 133.769 36.7984 133.695 36.7984C133.622 36.7984 133.548 36.7984 133.401 36.871C133.328 36.9435 133.254 36.9435 133.181 37.0161C133.107 37.0887 133.034 37.1613 133.034 37.2339C133.034 37.3064 132.96 37.4516 132.96 37.5242C132.96 37.5968 132.96 37.7419 133.034 37.8145C133.034 37.8871 133.107 37.9597 133.181 38.0323C133.254 38.1048 133.328 38.1774 133.401 38.1774C133.622 38.1048 133.695 38.1774 133.769 38.1774Z"
                  fill="white"/>
            <path d="M135.828 38.25L135.681 38.7581H135.019L135.975 36.1452H136.637L137.593 38.7581H136.931L136.784 38.25H135.828ZM136.564 37.6693L136.269 36.7984L135.975 37.6693H136.564Z"
                  fill="white"/>
            <path d="M59.1457 14.1532L52.8948 32.2984H48.4824L42.2315 14.1532H46.6439L50.7621 26.7097L54.8068 14.1532H59.1457Z"
                  fill="white"/>
            <path d="M65.7643 18.7258C66.5732 18.7258 67.3086 18.871 67.9705 19.1613C68.6323 19.4516 69.2206 19.8145 69.7354 20.3226C70.2502 20.8306 70.6179 21.4113 70.912 22.0645C71.2062 22.7177 71.3533 23.4436 71.3533 24.2419V32.2984H68.4117L67.8234 30.9919C67.4557 31.2823 67.088 31.5 66.7203 31.7177C66.3526 31.9355 65.9849 32.0806 65.4701 32.2258C65.0289 32.371 64.4405 32.4435 63.8522 32.4435C62.3814 32.4435 61.2783 32.0806 60.4694 31.4274C59.6605 30.7016 59.2928 29.8306 59.2928 28.7419C59.2928 28.0887 59.4398 27.5081 59.6605 26.9274C59.9546 26.3468 60.3958 25.9113 60.9842 25.5484C61.5725 25.1855 62.455 24.8226 63.4845 24.6048C64.5141 24.3871 65.7643 24.2419 67.3086 24.2419C67.3086 23.5887 67.1615 23.0806 66.7938 22.7177C66.4261 22.3548 66.0584 22.2097 65.5436 22.2097C65.1759 22.2097 64.8818 22.2823 64.6612 22.4274C64.4405 22.5726 64.2935 22.7177 64.1464 22.8629C63.9993 23.0806 63.8522 23.2984 63.8522 23.5161L59.8811 23.2258C60.0282 22.5726 60.1752 21.9919 60.4694 21.4113C60.7636 20.8306 61.1312 20.3952 61.646 20.0323C62.0873 19.6694 62.6756 19.3065 63.411 19.0887C64.0728 18.871 64.8818 18.7258 65.7643 18.7258ZM64.8818 29.5403C65.6172 29.5403 66.2055 29.3226 66.6467 28.8871C67.088 28.4516 67.3086 27.871 67.3086 27.1452V26.5645C66.4997 26.5645 65.7643 26.6371 65.2495 26.7097C64.7347 26.7823 64.2935 26.9274 63.9993 27.0726C63.7051 27.2177 63.4845 27.4355 63.411 27.6532C63.3374 27.871 63.2639 28.0887 63.2639 28.379C63.2639 28.7419 63.411 29.0323 63.7051 29.3226C63.9993 29.4677 64.367 29.5403 64.8818 29.5403Z"
                  fill="white"/>
            <path d="M81.5018 18.871C82.3107 18.871 83.0461 19.0161 83.708 19.2339C84.3699 19.5242 84.9582 19.8871 85.3994 20.3226C85.8406 20.8306 86.2819 21.4113 86.5025 22.0645C86.7967 22.7903 86.8702 23.5161 86.8702 24.3871V32.2984H82.899V25.2581C82.899 24.3871 82.6784 23.7339 82.2372 23.2258C81.796 22.7177 81.2076 22.5 80.4722 22.5C79.7368 22.5 79.1485 22.7177 78.7073 23.2258C78.266 23.7339 78.0454 24.3871 78.0454 25.2581V32.2984H74.0743V19.0161H77.0159L77.6042 20.3226C77.8983 20.0322 78.266 19.8145 78.7073 19.5968C79.075 19.4516 79.4427 19.2339 79.9575 19.0887C80.3987 19.0161 80.9135 18.871 81.5018 18.871Z"
                  fill="white"/>
            <path d="M89.2235 19.1613C89.2235 18.4355 89.3706 17.7823 89.6647 17.2016C89.9589 16.621 90.4001 16.0403 90.9884 15.5323C91.5767 15.0968 92.2386 14.6613 93.0475 14.371C93.8565 14.0806 94.739 13.9355 95.8421 13.9355C96.7981 13.9355 97.7541 14.0806 98.4895 14.371C99.2984 14.6613 99.9603 15.0968 100.475 15.6048C100.99 16.1129 101.431 16.7661 101.725 17.4193C102.019 18.1452 102.166 18.871 102.166 19.7419L98.0483 20.0323C98.0483 19.3064 97.8276 18.7258 97.4599 18.3629C97.0922 18 96.5039 17.7823 95.7685 17.7823C95.1067 17.7823 94.5919 17.9274 94.1506 18.2903C93.7829 18.6532 93.5623 19.0161 93.5623 19.4516C93.5623 19.8871 93.7829 20.25 94.2242 20.4677C94.6654 20.6855 95.2537 20.9032 95.9156 21.121C96.5775 21.3387 97.3129 21.5564 98.1218 21.7742C98.9307 21.9919 99.5926 22.3548 100.328 22.7177C100.99 23.1532 101.578 23.6613 102.019 24.3871C102.461 25.1129 102.681 25.9839 102.681 27.0726C102.681 27.7984 102.534 28.5242 102.24 29.1048C101.946 29.6855 101.505 30.3387 100.916 30.7742C100.328 31.2823 99.5926 31.6452 98.7837 31.9355C97.9012 32.2258 96.9452 32.371 95.8421 32.371C94.8125 32.371 93.8565 32.2258 93.0475 31.9355C92.2386 31.6452 91.5032 31.2097 90.9149 30.7016C90.3266 30.1935 89.8853 29.5403 89.5912 28.8145C89.297 28.0887 89.1499 27.2903 89.1499 26.4193L93.2682 26.129C93.2682 27.7258 94.1506 28.5968 95.9156 28.5968C96.7245 28.5968 97.3864 28.379 97.7541 28.0161C98.1953 27.6532 98.416 27.2177 98.416 26.7097C98.416 26.2742 98.1953 25.9113 97.7541 25.621C97.3129 25.4032 96.7245 25.1129 96.0627 24.8952C95.4008 24.6774 94.6654 24.4597 93.8565 24.2419C93.0475 24.0242 92.3857 23.6613 91.6503 23.2984C90.9884 22.8629 90.4001 22.3548 89.9589 21.7016C89.4441 21.121 89.2235 20.25 89.2235 19.1613Z"
                  fill="white"/>
            <path d="M106.138 22.6452H104.079V19.3064H105.108C106.211 19.3064 106.726 18.7984 106.726 17.7097V15.8226H110.109V19.0161H112.903V22.6452H110.109V27C110.109 27.5806 110.256 28.0161 110.624 28.379C110.918 28.7419 111.359 28.8871 111.874 28.8871C112.021 28.8871 112.168 28.8871 112.315 28.8871C112.462 28.8871 112.536 28.8871 112.609 28.8145C112.683 28.8145 112.83 28.7419 112.903 28.7419V32.2258C112.756 32.2984 112.536 32.2984 112.389 32.371C112.021 32.4435 111.506 32.5161 110.991 32.5161C109.447 32.5161 108.27 32.0806 107.461 31.2823C106.652 30.4113 106.211 29.25 106.211 27.6532V22.6452H106.138Z"
                  fill="white"/>
            <path d="M121.213 18.7258C122.022 18.7258 122.758 18.871 123.42 19.1613C124.081 19.4516 124.67 19.8145 125.184 20.3226C125.699 20.8306 126.067 21.4113 126.361 22.0645C126.655 22.7177 126.802 23.4436 126.802 24.2419V32.2984H123.861L123.272 30.9919C122.905 31.2823 122.537 31.5 122.169 31.7177C121.802 31.9355 121.434 32.0806 120.919 32.2258C120.404 32.371 119.89 32.4435 119.301 32.4435C117.831 32.4435 116.727 32.0806 115.918 31.4274C115.11 30.7742 114.742 29.8306 114.742 28.7419C114.742 28.0887 114.889 27.5081 115.11 26.9274C115.404 26.3468 115.845 25.9113 116.433 25.5484C117.022 25.1855 117.904 24.8226 118.934 24.6048C119.963 24.3871 121.213 24.2419 122.758 24.2419C122.758 23.5887 122.611 23.0806 122.243 22.7177C121.875 22.3548 121.508 22.2097 120.993 22.2097C120.625 22.2097 120.331 22.2823 120.11 22.4274C119.89 22.5726 119.743 22.7177 119.595 22.8629C119.448 23.0806 119.301 23.2984 119.301 23.5161L115.33 23.2258C115.477 22.5726 115.624 21.9919 115.918 21.4113C116.213 20.8306 116.58 20.3952 117.095 20.0323C117.536 19.6694 118.125 19.3065 118.86 19.0887C119.522 18.871 120.331 18.7258 121.213 18.7258ZM120.331 29.5403C121.066 29.5403 121.655 29.3226 122.096 28.8871C122.537 28.4516 122.758 27.871 122.758 27.1452V26.5645C121.949 26.5645 121.213 26.6371 120.699 26.7097C120.184 26.7823 119.743 26.9274 119.448 27.0726C119.154 27.2177 118.934 27.4355 118.86 27.6532C118.787 27.871 118.713 28.0887 118.713 28.379C118.713 28.7419 118.86 29.0323 119.154 29.3226C119.448 29.6129 119.816 29.5403 120.331 29.5403Z"
                  fill="white"/>
            <path d="M130.406 22.6452H128.347V19.3064H129.376C130.479 19.3064 130.994 18.7984 130.994 17.7097V15.8226H134.377V19.0161H137.172V22.6452H134.377V27C134.377 27.5806 134.524 28.0161 134.892 28.379C135.186 28.7419 135.627 28.8871 136.142 28.8871C136.289 28.8871 136.436 28.8871 136.583 28.8871C136.73 28.8871 136.804 28.8871 136.877 28.8145C136.951 28.7419 137.098 28.7419 137.172 28.7419V32.2258C137.024 32.2984 136.804 32.2984 136.657 32.371C136.289 32.4435 135.774 32.5161 135.259 32.5161C133.715 32.5161 132.539 32.0806 131.73 31.2823C130.921 30.4113 130.479 29.25 130.479 27.6532V22.6452H130.406Z"
                  fill="white"/>
        </g>
        <defs>
            <clipPath id="clip0_55_125">
                <rect width="138" height="45" fill="white"/>
            </clipPath>
        </defs>
    </symbol>

    <symbol id="slider-arrow" viewBox="0 0 9 15" fill="none" xmlns="http://www.w3.org/2000/svg">
        <path id="slider-arrow-path" d="M1.8606 13.3438L7.8606 7.34375L1.8606 1.34375" stroke="white" stroke-width="2" stroke-linecap="round" stroke-linejoin="round"/>
    </symbol>

    <symbol id="slider-arrow-color" viewBox="0 0 9 15" fill="none" xmlns="http://www.w3.org/2000/svg">
        <path id="slider-arrow-path" d="M1.8606 13.3438L7.8606 7.34375L1.8606 1.34375" stroke="#F28153" stroke-width="2" stroke-linecap="round" stroke-linejoin="round"/>
    </symbol>

    <symbol id="contour" viewBox="0 0 1373 551" fill="none" xmlns="http://www.w3.org/2000/svg">
        <rect x="15" y="15" width="1343" height="521" stroke="#F28153" stroke-opacity="0.15" stroke-width="30"/>
    </symbol>

    <symbol id="man" viewBox="0 0 80 80" fill="none" xmlns="http://www.w3.org/2000/svg">
        <circle cx="30" cy="22" r="15" stroke="#F28153" stroke-width="2"/>
        <mask id="path-2-inside-1_127_445" fill="white">
            <path d="M6 60C6 52.8203 11.8203 47 19 47H41C48.1797 47 54 52.8203 54 60V75H6V60Z"/>
        </mask>
        <path d="M4 60C4 51.7157 10.7157 45 19 45H41C49.2843 45 56 51.7157 56 60H52C52 53.9249 47.0751 49 41 49H19C12.9249 49 8 53.9249 8 60H4ZM54 75H6H54ZM4 75V60C4 51.7157 10.7157 45 19 45V49C12.9249 49 8 53.9249 8 60V75H4ZM41 45C49.2843 45 56 51.7157 56 60V75H52V60C52 53.9249 47.0751 49 41 49V45Z" fill="#F28153" mask="url(#path-2-inside-1_127_445)"/>
        <path d="M62.5 25L66.1663 32.4538L74.3882 33.6373L68.4322 39.4275L69.8473 47.6127L62.5 43.7375L55.1527 47.6127L56.5678 39.4275L50.6118 33.6373L58.8337 32.4538L62.5 25Z" fill="#F28153"/>
    </symbol>

    <symbol id="tetris" viewBox="0 0 71 70" fill="none" xmlns="http://www.w3.org/2000/svg">
        <rect x="54.5567" y="21.7217" width="14.4948" height="14.701" stroke="#F28153" stroke-width="2"/>
        <rect x="54.5567" y="37.5879" width="14.4948" height="14.701" stroke="#F28153" stroke-width="2"/>
        <rect x="38.8866" y="37.5879" width="14.4948" height="14.701" stroke="#F28153" stroke-width="2"/>
        <rect x="54.5567" y="53.4541" width="14.4948" height="14.701" stroke="#F28153" stroke-width="2"/>
        <rect x="38.8866" y="53.4541" width="14.4948" height="14.701" stroke="#F28153" stroke-width="2"/>
        <rect x="23.2165" y="53.4541" width="14.4948" height="14.701" stroke="#F28153" stroke-width="2"/>
        <rect x="1.7732" y="31.7422" width="14.4948" height="14.701" stroke="#F28153" stroke-width="2"/>
        <rect x="26.5155" y="9.19629" width="14.4948" height="14.701" stroke="#F28153" stroke-width="2"/>
        <rect x="3.42268" y="1.68066" width="14.4948" height="14.701" stroke="#F28153" stroke-width="2"/>
    </symbol>

    <symbol id="ifo" viewBox="0 0 78 79" fill="none" xmlns="http://www.w3.org/2000/svg">
        <path d="M22.8814 11.2069L39 1.82692L55.1186 11.2069L55.122 11.2089L71.2136 20.658L71.2499 39.4979V39.5017L71.2136 58.3417L55.122 67.7907L55.1186 67.7927L39 77.1727L22.8814 67.7927L22.878 67.7907L6.78638 58.3417L6.7501 39.5017V39.4979L6.78638 20.658L22.878 11.2089L22.8814 11.2069Z" stroke="#F28153" stroke-width="2"/>
        <path d="M54.9072 39.082C54.9072 48.2264 47.589 55.6181 38.5876 55.6181C29.5862 55.6181 22.268 48.2264 22.268 39.082C22.268 29.9376 29.5862 22.5459 38.5876 22.5459C47.589 22.5459 54.9072 29.9376 54.9072 39.082Z" stroke="#F28153" stroke-width="2"/>
        <path d="M35.9381 25.3039C35.9381 28.2223 33.6048 30.5668 30.7526 30.5668C27.9003 30.5668 25.567 28.2223 25.567 25.3039C25.567 22.3855 27.9003 20.041 30.7526 20.041C33.6048 20.041 35.9381 22.3855 35.9381 25.3039Z" fill="white" stroke="#F28153" stroke-width="2"/>
        <path d="M59.8557 37.8293C59.8557 40.7477 57.5223 43.0922 54.6701 43.0922C51.8179 43.0922 49.4845 40.7477 49.4845 37.8293C49.4845 34.9109 51.8179 32.5664 54.6701 32.5664C57.5223 32.5664 59.8557 34.9109 59.8557 37.8293Z" fill="white" stroke="#F28153" stroke-width="2"/>
        <path d="M34.2887 52.8605C34.2887 55.7789 31.9553 58.1234 29.1031 58.1234C26.2509 58.1234 23.9175 55.7789 23.9175 52.8605C23.9175 49.9422 26.2509 47.5977 29.1031 47.5977C31.9553 47.5977 34.2887 49.9422 34.2887 52.8605Z" fill="white" stroke="#F28153" stroke-width="2"/>
    </symbol>

    <symbol id="plug-social" viewBox="0 0 25 25" fill="none" xmlns="http://www.w3.org/2000/svg">
        <circle cx="12.5" cy="12.5" r="12.5" fill="#F28153"/>
    </symbol>



</svg>
