<svg xmlns="http://www.w3.org/2000/svg"><symbol id="logo" viewBox="0 0 138 45" fill="none" xmlns="http://www.w3.org/2000/svg"><g clip-path="url(#clip0_55_125)"><path d="M18.017 31.573l8.457-7.984v-5.444l-5.883-5.806V0l15.076 14.516v12.702L18.017 45 0 26.129V15.242L10.663 4.718l5.884 5.806v10.887l-4.78-5.08-2.942 2.903v3.629l9.192 8.71z" fill="#F28153"/><path d="M92.219 37.379c0 .218 0 .363-.073.508-.074.145-.148.29-.295.436-.147.145-.22.217-.44.29-.148.072-.295.072-.516.072-.147 0-.367 0-.514-.072-.148-.073-.295-.145-.442-.29a1.516 1.516 0 01-.294-.436c-.073-.145-.073-.363-.073-.508 0-.218 0-.363.073-.508.074-.145.147-.29.294-.436.147-.145.22-.217.442-.29.147-.072.294-.072.514-.072.147 0 .368 0 .515.072.147.073.294.145.441.29.147.146.22.29.294.436 0 .218.074.363.074.508zm-.588 0c0-.072 0-.218-.074-.29 0-.073-.073-.145-.147-.218-.073-.073-.147-.145-.22-.145-.074-.073-.148-.073-.295-.073-.073 0-.147 0-.294.073-.073.072-.147.072-.22.145-.074.073-.148.145-.148.218 0 .072-.073.218-.073.29 0 .073 0 .218.073.29 0 .073.074.146.147.218.074.073.148.145.221.145.074.073.147.073.294.073.074 0 .147 0 .294-.073.148-.072.148-.072.221-.145.074-.072.147-.145.147-.218 0-.072.074-.145.074-.29zm3.162-1.234v2.613h-.588v-2.032h-1.03v2.032h-.588v-2.613h2.206zm3.015 1.234c0 .218 0 .363-.074.508-.073.145-.147.29-.294.436-.147.145-.22.217-.44.29-.148.072-.295.072-.516.072-.147 0-.367 0-.514-.072a1.542 1.542 0 01-.442-.29 1.53 1.53 0 01-.294-.436c-.073-.145-.073-.363-.073-.508 0-.218 0-.363.073-.508.074-.145.147-.29.294-.436.147-.145.22-.217.441-.29.148-.072.295-.072.515-.072.147 0 .368 0 .515.072.147.073.294.145.441.29.147.146.22.29.294.436 0 .218.074.363.074.508zm-.662 0c0-.073 0-.218-.073-.29 0-.073-.074-.145-.147-.218-.074-.073-.148-.145-.221-.145-.074-.073-.147-.073-.294-.073-.074 0-.147 0-.294.073-.074.072-.148.072-.221.145-.074.072-.147.145-.147.218 0 .072-.074.217-.074.29 0 .073 0 .218.074.29 0 .073.073.146.147.218.073.073.147.145.22.145.074.073.148.073.295.073.073 0 .147 0 .294-.073.147-.072.147-.072.22-.145.074-.072.148-.145.148-.218.073-.072.073-.145.073-.29zm2.059-1.234c.147 0 .294 0 .368.073.147.072.22.072.294.217.074.073.147.146.221.29.073.073.073.218.073.364 0 .145 0 .217-.073.363-.074.072-.147.217-.22.29a1.027 1.027 0 01-.295.218c-.147.072-.22.072-.368.072h-.44v.799h-.59v-2.613h1.03v-.073zm0 1.161c.074 0 .147 0 .22-.072.075-.073.075-.145.075-.218 0-.072 0-.145-.074-.218-.074-.072-.147-.072-.22-.072h-.442v.653h.441v-.073zm1.692.944l-.147.508h-.662l.956-2.613h.662l.956 2.613H102l-.147-.508h-.956zm.735-.58l-.294-.872-.294.871h.588zm3.751-.364c.073 0 .147.073.22.146.074.072.074.145.147.217.074.073.074.146.074.29 0 .073 0 .218-.074.291-.073.073-.073.145-.147.218-.073.072-.147.145-.294.145-.073.072-.221.072-.368.072h-1.176v-2.612h1.103c.147 0 .22 0 .294.072.074.073.221.073.221.145.073.073.147.145.147.218 0 .073.073.145.073.29 0 .073 0 .145-.073.218-.074.073-.074.145-.074.145.074.073 0 .145-.073.145zm-1.03-.145h.441c.074 0 .147 0 .221-.072.073-.073.073-.145.073-.218 0-.073 0-.145-.073-.218-.074-.072-.147-.072-.221-.072h-.441v.58zm.515 1.089c.073 0 .147 0 .22-.073.074-.072.074-.145.074-.217 0-.073 0-.145-.074-.218-.073-.073-.147-.073-.22-.073h-.515v.581h.515zm1.838 0l-.147.508h-.662l.956-2.613h.662l.956 2.613h-.662l-.147-.508h-.956zm.736-.58l-.294-.872-.295.871h.589zm1.176 1.015v-2.612h.589v2.032h.662v-2.032h.588v2.032h.662v-2.032h.588v2.612h-3.089zm3.677-2.54h1.912v.58h-1.25v.436h1.177v.58h-1.177v.364h1.324v.58h-1.912v-2.54h-.074zm2.28 0h1.692v.58h-1.104v2.033h-.588v-2.613zm4.413 1.234c0 .218 0 .363-.074.508-.074.145-.147.29-.294.436-.147.145-.221.217-.441.29-.221.072-.295.072-.515.072-.147 0-.368 0-.515-.072a1.54 1.54 0 01-.441-.29 1.508 1.508 0 01-.294-.436c-.074-.145-.074-.363-.074-.508 0-.218 0-.363.074-.508.073-.145.147-.29.294-.436.147-.145.22-.217.441-.29.221-.072.294-.072.515-.072.147 0 .368 0 .515.072.147.073.294.145.441.29.147.146.22.29.294.436 0 .218.074.363.074.508zm-.589 0c0-.073 0-.218-.073-.29 0-.073-.074-.145-.147-.218-.074-.073-.147-.145-.221-.145-.074-.073-.147-.073-.294-.073-.074 0-.221 0-.294.073-.074.072-.147.072-.221.145-.074.072-.147.145-.147.218 0 .072-.074.217-.074.29 0 .073 0 .218.074.29 0 .073.073.146.147.218.074.073.147.145.221.145.073 0 .147.073.294.073.073 0 .147 0 .294-.073.147-.072.147-.072.221-.145.073-.072.147-.145.147-.218 0-.072.073-.145.073-.29zm3.015-.29c.147 0 .294 0 .368.072.147.073.221.073.294.145.074.073.147.146.221.29.073.146.073.219.073.291 0 .073 0 .218-.073.29-.074.073-.074.218-.221.29-.073.073-.147.146-.294.146-.147.072-.221.072-.368.072h-1.103v-2.612h1.839v.58h-1.25v.363h.514v.073zm0 1.088c.074 0 .147 0 .221-.072.073-.073.073-.145.073-.218 0-.072 0-.145-.073-.218-.074-.072-.147-.072-.221-.072h-.514v.58h.514zm1.912-2.032v1.524l1.03-1.524h.515v2.613h-.589v-1.524l-1.029 1.524h-.515v-2.613h.588zm1.986.726c0-.073 0-.218.073-.29.074-.073.074-.146.221-.218.074-.073.147-.145.294-.145.147-.073.221-.073.368-.073s.294 0 .368.073c.147.072.22.072.294.145.073.072.147.145.147.218 0 .072.073.145.073.29 0 .072 0 .145-.073.218-.074.072-.074.145-.147.145l-.147.145c.073 0 .147.073.22.145.074.073.074.145.147.218.074.073.074.218.074.29 0 .073 0 .218-.074.29-.073.073-.073.146-.22.218-.147.073-.147.145-.294.145-.147.073-.221.073-.368.073s-.294 0-.441-.073c-.147-.072-.221-.072-.294-.145a.979.979 0 01-.221-.29c-.074-.073-.074-.218-.074-.29l.589-.073c0 .073.073.145.147.218.073.072.147.072.294.072s.221 0 .294-.072c.074-.073.074-.145.074-.218 0-.072 0-.145-.074-.218-.073-.072-.147-.072-.294-.072h-.294v-.508h.22c.148 0 .221 0 .221-.073.074-.072.074-.072.074-.145s0-.145-.074-.218c-.073-.072-.147-.072-.221-.072-.073 0-.147 0-.22.072-.074.073-.074.145-.074.218h-.588zm4.559-.726v2.613h-.588v-1.016h-1.029v1.016h-.589v-2.613h.589v1.016h1.029v-1.016h.588zm.442 0h1.912v.58h-1.25v.436h1.176v.58h-1.176v.364h1.323v.58h-1.912v-2.54h-.073zm3.456 2.032a.568.568 0 00.368-.145.995.995 0 00.22-.29l.662.073c0 .145-.073.217-.147.362a.568.568 0 01-.294.29c-.074.073-.221.146-.368.218-.147.073-.294.073-.441.073-.147 0-.368 0-.515-.073a1.54 1.54 0 01-.441-.29 1.508 1.508 0 01-.294-.435c-.074-.145-.074-.363-.074-.508 0-.218 0-.363.074-.508.073-.146.147-.29.294-.436.147-.145.221-.218.441-.29.147-.073.294-.073.515-.073.147 0 .294 0 .441.073.147.072.221.145.368.217.074.073.221.218.221.29.073.146.147.218.147.364l-.662.072c0-.072-.074-.072-.074-.145 0-.072-.073-.072-.147-.145-.073 0-.073-.073-.147-.073h-.221c-.073 0-.147 0-.294.073-.073.072-.147.072-.22.145-.074.073-.147.145-.147.218 0 .072-.074.218-.074.29 0 .073 0 .218.074.29 0 .073.073.146.147.218.073.073.147.145.22.145.221-.072.294 0 .368 0zm2.059.073l-.147.508h-.662l.956-2.613h.662l.956 2.613h-.662l-.147-.508h-.956zm.736-.58l-.295-.872-.294.871h.589zM59.146 14.153l-6.251 18.145h-4.413l-6.25-18.145h4.412l4.118 12.557 4.045-12.557h4.339zm6.618 4.573c.81 0 1.545.145 2.207.435.661.29 1.25.653 1.764 1.162.515.508.883 1.088 1.177 1.741.294.654.441 1.38.441 2.178v8.056h-2.941l-.589-1.306c-.367.29-.735.508-1.103.726-.367.218-.735.363-1.25.508-.441.145-1.03.218-1.618.218-1.47 0-2.574-.363-3.383-1.017-.809-.725-1.176-1.596-1.176-2.685 0-.653.147-1.234.367-1.815.295-.58.736-1.016 1.324-1.379.588-.362 1.471-.725 2.5-.943 1.03-.218 2.28-.363 3.825-.363 0-.653-.147-1.161-.515-1.524s-.736-.508-1.25-.508c-.368 0-.662.072-.883.217-.22.146-.368.29-.515.436-.147.218-.294.435-.294.653l-3.97-.29c.146-.653.293-1.234.587-1.815a3.6 3.6 0 011.177-1.379 5.033 5.033 0 011.765-.943 7.617 7.617 0 012.353-.363zm-.882 10.814c.735 0 1.323-.217 1.765-.653.441-.435.662-1.016.662-1.742v-.58c-.81 0-1.545.072-2.06.145a4.278 4.278 0 00-1.25.363c-.294.145-.515.363-.588.58-.074.218-.147.436-.147.726 0 .363.147.653.441.944.294.145.662.217 1.177.217zm16.62-10.669c.809 0 1.544.145 2.206.363.662.29 1.25.653 1.691 1.089.442.508.883 1.088 1.103 1.741.295.726.368 1.452.368 2.323v7.911H82.9v-7.04c0-.87-.22-1.524-.662-2.032-.441-.508-1.03-.726-1.765-.726-.735 0-1.323.218-1.765.726-.441.508-.662 1.161-.662 2.032v7.04h-3.97V19.016h2.94l.59 1.307c.293-.29.661-.509 1.102-.726.368-.145.736-.363 1.25-.508.442-.073.957-.218 1.545-.218zm7.722.29c0-.726.147-1.379.44-1.96a5.532 5.532 0 011.324-1.669c.589-.435 1.25-.87 2.06-1.161.808-.29 1.691-.436 2.794-.436.956 0 1.912.146 2.648.436.808.29 1.47.726 1.985 1.234a6.172 6.172 0 011.25 1.814c.294.726.441 1.452.441 2.323l-4.118.29c0-.726-.22-1.306-.588-1.67-.368-.362-.956-.58-1.691-.58-.662 0-1.177.145-1.618.508-.368.363-.589.726-.589 1.162 0 .435.22.798.662 1.016.441.218 1.03.435 1.692.653.662.218 1.397.435 2.206.653.809.218 1.47.58 2.206.944.662.435 1.25.943 1.691 1.67.442.725.662 1.596.662 2.685 0 .725-.147 1.451-.441 2.032-.294.58-.735 1.234-1.324 1.67-.588.507-1.323.87-2.132 1.16-.883.29-1.839.436-2.942.436-1.03 0-1.986-.145-2.794-.436a6.82 6.82 0 01-2.133-1.233 4.91 4.91 0 01-1.324-1.888c-.294-.725-.441-1.524-.441-2.395l4.118-.29c0 1.597.883 2.468 2.648 2.468.809 0 1.47-.218 1.838-.58.441-.364.662-.8.662-1.307 0-.436-.22-.799-.662-1.089-.441-.218-1.03-.508-1.691-.726a42.199 42.199 0 00-2.207-.653c-.808-.218-1.47-.58-2.206-.944-.662-.435-1.25-.943-1.691-1.596-.515-.581-.736-1.452-.736-2.54zm16.914 3.484h-2.059v-3.339h1.029c1.103 0 1.618-.508 1.618-1.596v-1.887h3.383v3.193h2.794v3.63h-2.794V27c0 .58.147 1.016.515 1.379.294.363.735.508 1.25.508h.441c.147 0 .221 0 .294-.073.074 0 .221-.072.294-.072v3.484c-.147.072-.367.072-.514.145a7.519 7.519 0 01-1.398.145c-1.544 0-2.721-.435-3.53-1.234-.809-.87-1.25-2.032-1.25-3.629v-5.008h-.073zm15.075-3.919c.809 0 1.545.145 2.207.435.661.29 1.25.653 1.764 1.162.515.508.883 1.088 1.177 1.741.294.654.441 1.38.441 2.178v8.056h-2.941l-.589-1.306c-.367.29-.735.508-1.103.726-.367.218-.735.363-1.25.508a5.803 5.803 0 01-1.618.218c-1.47 0-2.574-.363-3.383-1.017-.808-.653-1.176-1.596-1.176-2.685 0-.653.147-1.234.368-1.815.294-.58.735-1.016 1.323-1.379.589-.362 1.471-.725 2.501-.943 1.029-.218 2.279-.363 3.824-.363 0-.653-.147-1.161-.515-1.524s-.735-.508-1.25-.508c-.368 0-.662.072-.883.217-.22.146-.367.29-.515.436-.147.218-.294.435-.294.653l-3.971-.29c.147-.653.294-1.234.588-1.815a3.606 3.606 0 011.177-1.379 5.034 5.034 0 011.765-.943 7.619 7.619 0 012.353-.363zm-.882 10.814c.735 0 1.324-.217 1.765-.653.441-.435.662-1.016.662-1.742v-.58c-.809 0-1.545.072-2.059.145a4.29 4.29 0 00-1.251.363c-.294.145-.514.363-.588.58-.073.218-.147.436-.147.726 0 .363.147.653.441.944.294.29.662.217 1.177.217zm10.075-6.895h-2.059v-3.339h1.029c1.103 0 1.618-.508 1.618-1.596v-1.887h3.383v3.193h2.795v3.63h-2.795V27c0 .58.147 1.016.515 1.379.294.363.735.508 1.25.508h.441c.147 0 .221 0 .294-.073.074-.072.221-.072.295-.072v3.484c-.148.072-.368.072-.515.145a7.519 7.519 0 01-1.398.145c-1.544 0-2.72-.435-3.529-1.234-.809-.87-1.251-2.032-1.251-3.629v-5.008h-.073z" fill="#fff"/></g><defs><clipPath id="clip0_55_125"><path fill="#fff" d="M0 0h138v45H0z"/></clipPath></defs></symbol><symbol id="slider-arrow" viewBox="0 0 9 15" fill="none" xmlns="http://www.w3.org/2000/svg"><path id="slider-arrow-path" d="M1.86 13.344l6-6-6-6" stroke="#fff" stroke-width="2" stroke-linecap="round" stroke-linejoin="round"/></symbol><symbol id="slider-arrow-color" viewBox="0 0 9 15" fill="none" xmlns="http://www.w3.org/2000/svg"><path id="slider-arrow-path" d="M1.86 13.344l6-6-6-6" stroke="#F28153" stroke-width="2" stroke-linecap="round" stroke-linejoin="round"/></symbol><symbol id="contour" viewBox="0 0 1373 551" fill="none" xmlns="http://www.w3.org/2000/svg"><path stroke="#F28153" stroke-opacity=".15" stroke-width="30" d="M15 15h1343v521H15z"/></symbol><symbol id="man" viewBox="0 0 80 80" fill="none" xmlns="http://www.w3.org/2000/svg"><circle cx="30" cy="22" r="15" stroke="#F28153" stroke-width="2"/><mask id="path-2-inside-1_127_445" fill="#fff"><path d="M6 60c0-7.18 5.82-13 13-13h22c7.18 0 13 5.82 13 13v15H6V60z"/></mask><path d="M4 60c0-8.284 6.716-15 15-15h22c8.284 0 15 6.716 15 15h-4c0-6.075-4.925-11-11-11H19c-6.075 0-11 4.925-11 11H4zm50 15H6h48zM4 75V60c0-8.284 6.716-15 15-15v4c-6.075 0-11 4.925-11 11v15H4zm37-30c8.284 0 15 6.716 15 15v15h-4V60c0-6.075-4.925-11-11-11v-4z" fill="#F28153" mask="url(#path-2-inside-1_127_445)"/><path d="M62.5 25l3.666 7.454 8.222 1.183-5.956 5.79 1.415 8.186-7.347-3.876-7.347 3.876 1.415-8.185-5.956-5.79 8.222-1.184L62.5 25z" fill="#F28153"/></symbol><symbol id="tetris" viewBox="0 0 71 70" fill="none" xmlns="http://www.w3.org/2000/svg"><path stroke="#F28153" stroke-width="2" d="M54.557 21.722h14.495v14.701H54.557zm0 15.866h14.495v14.701H54.557zm-15.67 0h14.495v14.701H38.887zm15.67 15.866h14.495v14.701H54.557zm-15.67 0h14.495v14.701H38.887zm-15.671 0h14.495v14.701H23.216zM1.773 31.742h14.495v14.701H1.773zM26.515 9.196H41.01v14.701H26.515zM3.423 1.681h14.495v14.701H3.423z"/></symbol><symbol id="ifo" viewBox="0 0 78 79" fill="none" xmlns="http://www.w3.org/2000/svg"><path d="M22.881 11.207L39 1.827l16.119 9.38.003.002 16.092 9.449.036 18.84v.004l-.036 18.84-16.092 9.449-.003.002L39 77.173l-16.119-9.38-.003-.002-16.092-9.45-.036-18.84v-.003l.036-18.84 16.092-9.45.003-.001z" stroke="#F28153" stroke-width="2"/><path d="M54.907 39.082c0 9.144-7.318 16.536-16.32 16.536-9 0-16.319-7.392-16.319-16.536 0-9.144 7.318-16.536 16.32-16.536 9.001 0 16.32 7.392 16.32 16.536z" stroke="#F28153" stroke-width="2"/><path d="M35.938 25.304c0 2.918-2.333 5.263-5.185 5.263-2.853 0-5.186-2.345-5.186-5.263 0-2.918 2.333-5.263 5.186-5.263 2.852 0 5.185 2.345 5.185 5.263zM59.856 37.83c0 2.918-2.334 5.262-5.186 5.262s-5.186-2.344-5.186-5.263c0-2.918 2.334-5.263 5.186-5.263s5.186 2.345 5.186 5.263zM34.289 52.86c0 2.919-2.334 5.263-5.186 5.263s-5.186-2.344-5.186-5.262c0-2.919 2.334-5.263 5.186-5.263s5.186 2.344 5.186 5.263z" fill="#fff" stroke="#F28153" stroke-width="2"/></symbol><symbol id="plug-social" viewBox="0 0 25 25" fill="none" xmlns="http://www.w3.org/2000/svg"><circle cx="12.5" cy="12.5" r="12.5" fill="#F28153"/></symbol></svg>